<svg xmlns="http://www.w3.org/2000/svg" width="860" height="360" viewBox="0 0 860 360" role="img" aria-label="总览看板示意图">
  <rect width="860" height="360" rx="12" fill="#f5f7fb"/>
  <rect x="24" y="24" width="812" height="56" rx="8" fill="#ffffff" stroke="#b6cee8"/>
  <text x="48" y="58" font-family="Arial, sans-serif" font-size="22" font-weight="700" fill="#182433">NetMaster 自动化运维平台</text>
  <g font-family="Arial, sans-serif">
    <rect x="24" y="104" width="190" height="80" rx="8" fill="#ffffff" stroke="#dbe5f2"/>
    <rect x="24" y="104" width="4" height="80" rx="2" fill="#206bc4"/>
    <text x="52" y="136" font-size="13" fill="#667382">管理设备总数</text>
    <text x="52" y="166" font-size="26" font-weight="700" fill="#182433">27 台</text>
    <rect x="234" y="104" width="190" height="80" rx="8" fill="#ffffff" stroke="#dbe5f2"/>
    <rect x="234" y="104" width="4" height="80" rx="2" fill="#2fb344"/>
    <text x="262" y="136" font-size="13" fill="#667382">自动交备状态</text>
    <text x="262" y="166" font-size="20" font-weight="700" fill="#182433">完美备份</text>
    <rect x="444" y="104" width="190" height="80" rx="8" fill="#ffffff" stroke="#dbe5f2"/>
    <rect x="444" y="104" width="4" height="80" rx="2" fill="#f59f00"/>
    <text x="472" y="136" font-size="13" fill="#667382">本月绑定变更</text>
    <text x="472" y="166" font-size="20" font-weight="700" fill="#182433">迁移 / 新增 / 删除</text>
    <rect x="654" y="104" width="182" height="80" rx="8" fill="#ffffff" stroke="#dbe5f2"/>
    <rect x="654" y="104" width="4" height="80" rx="2" fill="#d63939"/>
    <text x="682" y="136" font-size="13" fill="#667382">当前网络告警</text>
    <text x="682" y="166" font-size="24" font-weight="700" fill="#182433">高危</text>
  </g>
  <rect x="24" y="208" width="812" height="124" rx="8" fill="#ffffff" stroke="#dbe5f2"/>
  <text x="48" y="238" font-family="Arial, sans-serif" font-size="14" font-weight="700" fill="#182433">最近 10 次绑定变更</text>
  <g font-family="Arial, sans-serif" font-size="13">
    <rect x="48" y="258" width="52" height="24" rx="12" fill="#eaf2ff"/>
    <text x="63" y="275" fill="#206bc4" font-weight="700">迁移</text>
    <text x="118" y="275" fill="#182433">MAC / IP</text>
    <text x="300" y="275" fill="#182433">源交换机 / 端口</text>
    <text x="520" y="275" fill="#182433">目的交换机 / 端口</text>
    <line x1="48" y1="294" x2="812" y2="294" stroke="#dbe5f2"/>
  </g>
</svg>
